<svg width="16" height="16" viewBox="0 0 16 16" fill="none" xmlns="http://www.w3.org/2000/svg">
<path fill-rule="evenodd" clip-rule="evenodd" d="M4 2C4 1.44772 4.44772 1 5 1C5.55228 1 6 1.44772 6 2V6C6 6.55228 5.55228 7 5 7C4.44772 7 4 6.55228 4 6V2ZM2 2C1.44772 2 1 2.44772 1 3V6C1 6.55228 1.44772 7 2 7C2.55228 7 3 6.55228 3 6V3C3 2.44772 2.55228 2 2 2ZM2 10C1.44772 10 1 10.4477 1 11V14C1 14.5523 1.44772 15 2 15C2.55228 15 3 14.5523 3 14V11C3 10.4477 2.55228 10 2 10ZM5 9C4.44772 9 4 9.44772 4 10V14C4 14.5523 4.44772 15 5 15C5.55228 15 6 14.5523 6 14V10C6 9.44772 5.55228 9 5 9ZM7 4C7 3.44772 7.44772 3 8 3C8.55228 3 9 3.44772 9 4V6C9 6.55228 8.55228 7 8 7C7.44772 7 7 6.55228 7 6V4ZM8 11C7.44772 11 7 11.4477 7 12V14C7 14.5523 7.44772 15 8 15C8.55228 15 9 14.5523 9 14V12C9 11.4477 8.55228 11 8 11ZM10 6C10 5.44772 10.4477 5 11 5C11.5523 5 12 5.44772 12 6C12 6.55228 11.5523 7 11 7C10.4477 7 10 6.55228 10 6ZM11 13C10.4477 13 10 13.4477 10 14C10 14.5523 10.4477 15 11 15C11.5523 15 12 14.5523 12 14C12 13.4477 11.5523 13 11 13ZM13 6C13 5.44772 13.4477 5 14 5C14.5523 5 15 5.44772 15 6C15 6.55228 14.5523 7 14 7C13.4477 7 13 6.55228 13 6ZM14 13C13.4477 13 13 13.4477 13 14C13 14.5523 13.4477 15 14 15C14.5523 15 15 14.5523 15 14C15 13.4477 14.5523 13 14 13Z" fill="#E3D25C"/>
</svg>
