<svg width="16" height="16" viewBox="0 0 16 16" fill="none" xmlns="http://www.w3.org/2000/svg">
<path d="M6 10.1582C6.00232 10.3072 6.04255 10.453 6.11673 10.5811C6.1909 10.7093 6.29643 10.8154 6.42287 10.8888C6.54931 10.9623 6.69228 11.0006 6.83761 11C6.98294 10.9994 7.12559 10.9599 7.25144 10.8853L10.5886 8.73737C10.7139 8.66184 10.8177 8.55408 10.8899 8.42475C10.962 8.29541 11 8.149 11 8C11 7.851 10.962 7.70459 10.8899 7.57525C10.8177 7.44592 10.7139 7.33816 10.5886 7.26263L7.25144 5.11467C7.12559 5.04014 6.98294 5.00062 6.83761 5.00001C6.69228 4.9994 6.54931 5.03772 6.42287 5.11119C6.29643 5.18465 6.1909 5.29071 6.11673 5.41885C6.04255 5.54699 6.00232 5.69278 6 5.84178V10.1582Z" fill="#E0E0E0"/>
<mask id="mask0_1_131" style="mask-type:alpha" maskUnits="userSpaceOnUse" x="1" y="1" width="14" height="14">
<path fill-rule="evenodd" clip-rule="evenodd" d="M8 3C5.23858 3 3 5.23858 3 8C3 8.55228 2.55228 9 2 9C1.44772 9 1 8.55228 1 8C1 4.13401 4.13401 1 8 1C9.95955 1 11.7301 1.8052 13 3.10125V2C13 1.44772 13.4477 1 14 1C14.5523 1 15 1.44772 15 2V5.42857C15 5.98086 14.5523 6.42857 14 6.42857H13.4226H10.2664C9.7141 6.42857 9.26638 5.98086 9.26638 5.42857C9.26638 4.87629 9.7141 4.42857 10.2664 4.42857H11.4995C10.5971 3.54429 9.36166 3 8 3ZM14 7C14.5523 7 15 7.44772 15 8C15 11.866 11.866 15 8 15C6.04045 15 4.26994 14.1948 3 12.8987V14C3 14.5523 2.55228 15 2 15C1.44772 15 1 14.5523 1 14V10.5714C1 10.0191 1.44772 9.57143 2 9.57143H2.5774H5V11.5714H4.50049C5.40288 12.4557 6.63834 13 8 13C10.7614 13 13 10.7614 13 8C13 7.44772 13.4477 7 14 7Z" fill="#D9D9D9"/>
</mask>
<g mask="url(#mask0_1_131)">
<rect width="15" height="15" fill="url(#paint0_linear_1_131)"/>
</g>
<defs>
<linearGradient id="paint0_linear_1_131" x1="-1.25" y1="0" x2="-1.25" y2="15.5561" gradientUnits="userSpaceOnUse">
<stop stop-color="#FF5F5F"/>
<stop offset="0.5" stop-color="#E1DA5B"/>
<stop offset="1" stop-color="#5FFF97"/>
</linearGradient>
</defs>
</svg>
