<svg width="16" height="16" viewBox="0 0 16 16" fill="none" xmlns="http://www.w3.org/2000/svg">
<mask id="mask0_2_220" style="mask-type:alpha" maskUnits="userSpaceOnUse" x="1" y="2" width="14" height="12">
<path fill-rule="evenodd" clip-rule="evenodd" d="M4 3C4 2.44772 4.44772 2 5 2C5.55228 2 6 2.44772 6 3V8.5V13C6 13.5523 5.55228 14 5 14C4.44772 14 4 13.5523 4 13V3ZM9 7L7 8V6C7 5.44772 7.44772 5 8 5C8.55228 5 9 5.44772 9 6V7ZM1 5C1 4.44772 1.44772 4 2 4C2.55228 4 3 4.44772 3 5V11C3 11.5523 2.55228 12 2 12C1.44772 12 1 11.5523 1 11V5ZM13 8C13 7.44772 13.4477 7 14 7C14.5523 7 15 7.44772 15 8C15 8.55228 14.5523 9 14 9C13.4477 9 13 8.55228 13 8Z" fill="#E3D25C"/>
</mask>
<g mask="url(#mask0_2_220)">
<rect x="1" y="2" width="14" height="12" fill="url(#paint0_linear_2_220)"/>
</g>
<path d="M9 14.0179C9.00278 14.1918 9.05107 14.3618 9.14007 14.5113C9.22908 14.6608 9.35571 14.7846 9.50744 14.8703C9.65917 14.956 9.83073 15.0007 10.0051 15C10.1795 14.9993 10.3507 14.9532 10.5017 14.8662L14.5063 12.3603C14.6567 12.2722 14.7813 12.1464 14.8679 11.9955C14.9545 11.8446 15 11.6738 15 11.5C15 11.3262 14.9545 11.1554 14.8679 11.0045C14.7813 10.8536 14.6567 10.7278 14.5063 10.6397L10.5017 8.13378C10.3507 8.04683 10.1795 8.00072 10.0051 8.00001C9.83073 7.9993 9.65917 8.04401 9.50744 8.12972C9.35571 8.21543 9.22908 8.33916 9.14007 8.48866C9.05107 8.63816 9.00278 8.80825 9 8.98207V14.0179Z" fill="#FC7F7F"/>
<defs>
<linearGradient id="paint0_linear_2_220" x1="-0.166664" y1="2" x2="-0.166664" y2="14.4449" gradientUnits="userSpaceOnUse">
<stop stop-color="#FF5F5F"/>
<stop offset="0.5" stop-color="#E1DA5B"/>
<stop offset="1" stop-color="#5FFF97"/>
</linearGradient>
</defs>
</svg>
