<svg width="16" height="16" viewBox="0 0 16 16" fill="none" xmlns="http://www.w3.org/2000/svg">
<path fill-rule="evenodd" clip-rule="evenodd" d="M1 1H8V3H1V1ZM10 1H15V3H10V1ZM12 5H1V7H12V5ZM1 9H5V11H1V9ZM7 13H1V15H7V13Z" fill="#E0E0E0"/>
<path d="M9 14.0179C9.00278 14.1918 9.05107 14.3618 9.14007 14.5113C9.22908 14.6608 9.35571 14.7846 9.50744 14.8703C9.65917 14.956 9.83073 15.0007 10.0051 15C10.1795 14.9993 10.3507 14.9532 10.5017 14.8662L14.5063 12.3603C14.6567 12.2722 14.7813 12.1464 14.8679 11.9955C14.9545 11.8446 15 11.6738 15 11.5C15 11.3262 14.9545 11.1554 14.8679 11.0045C14.7813 10.8536 14.6567 10.7278 14.5063 10.6397L10.5017 8.13378C10.3507 8.04683 10.1795 8.00072 10.0051 8.00001C9.83073 7.9993 9.65917 8.04401 9.50744 8.12972C9.35571 8.21543 9.22908 8.33916 9.14007 8.48866C9.05107 8.63816 9.00278 8.80825 9 8.98207V14.0179Z" fill="#E0E0E0"/>
</svg>
